<?xml version="1.0" encoding="utf-8"?>
<!-- Generator: Adobe Illustrator 23.0.2, SVG Export Plug-In . SVG Version: 6.00 Build 0)  -->
<svg version="1.1" id="Capa_1" xmlns="http://www.w3.org/2000/svg" xmlns:xlink="http://www.w3.org/1999/xlink" x="0px" y="0px"
	 viewBox="0 0 511 511" style="enable-background:new 0 0 511 511;" xml:space="preserve">
<style type="text/css">
	.st0{fill:#FF620B;}
	.st1{fill:#1AB9FF;}
	.st2{fill:#F7C92B;}
	.st3{fill:#F2B51D;}
	.st4{fill:#F7E249;}
	.st5{fill:#FC476E;}
	.st6{fill:#CC2B5A;}
	.st7{fill:#E3FAFF;}
</style>
<g>
	<path class="st2" d="M318.9,445.8c0-35-28.4-63.3-63.4-63.3s-63.4,28.3-63.4,63.3s28.4,63.3,63.4,63.3S318.9,480.8,318.9,445.8z"/>
	<path class="st3" d="M255.5,382.5c-6.4,0-12.6,1-18.4,2.7c26,7.9,45,32,45,60.6c0,28.6-19,52.7-45,60.6c5.8,1.8,12,2.7,18.4,2.7
		c35,0,63.4-28.3,63.4-63.3S290.5,382.5,255.5,382.5z"/>
	<path class="st2" d="M262.9,76.3c-20.4,4.1-40.2-9.1-44.3-29.4c-4.1-20.3,9.1-40.1,29.5-44.2s40.2,9.1,44.3,29.4
		C296.5,52.4,283.3,72.2,262.9,76.3z"/>
	<path class="st3" d="M292.4,32c-4.1-20.3-23.9-33.5-44.3-29.4c-1.9,0.4-3.7,0.9-5.5,1.5c11.9,4.3,21.3,14.6,24,27.9
		c3.7,18.4-6.8,36.4-24,42.7c6.3,2.3,13.3,2.9,20.3,1.5C283.3,72.2,296.5,52.4,292.4,32z"/>
	<path class="st4" d="M412.6,435.2H98.4c-28.1,0-50.9-22.8-50.9-50.8c0-15.5,7-30.2,19.2-40l10.1-8.1c23.3-18.8,36.9-47.1,36.9-77.1
		v-53.4c0-78.8,64-142.7,142.9-142.7c78.9,0,142.9,63.9,142.9,142.7v54.4c0,29.4,13.1,57.2,35.7,76.1l9.8,8.2
		c11.7,9.8,18.5,24.2,18.5,39.5v0.5C463.5,412.5,440.7,435.2,412.6,435.2z"/>
	<path class="st2" d="M445,344.4l-9.8-8.2c-22.6-18.8-35.7-46.7-35.7-76.1v-54.4c0-78.8-64-142.7-142.9-142.7c-14,0-27.5,2-40.3,5.8
		C275.6,86.2,319,141,319,205.8v54.4c0,29.4,13.1,57.2,35.7,76.1l9.8,8.2c11.7,9.8,18.5,24.2,18.5,39.5v0.5
		c0,28.1-22.8,50.8-50.9,50.8h80.5c28.1,0,50.9-22.8,50.9-50.8v-0.5C463.5,368.6,456.7,354.2,445,344.4z"/>
	<path class="st5" d="M429.3,107.1c0-29.1-23.6-52.7-52.8-52.7c-29.2,0-52.8,23.6-52.8,52.7s23.6,52.7,52.8,52.7
		C405.7,159.8,429.3,136.2,429.3,107.1z"/>
	<path class="st6" d="M390.7,56.3c13.5,9.6,22.2,25.2,22.2,43c0,29.1-23.6,52.7-52.8,52.7c-4.9,0-9.7-0.7-14.2-1.9
		c8.6,6.1,19.2,9.7,30.5,9.7c29.2,0,52.8-23.6,52.8-52.7C429.3,82.9,413,62.5,390.7,56.3z"/>
	<path class="st7" d="M376.5,131.7c-2,0-3.7-1.6-3.7-3.7V92.5l-1.4,1.3c-1.5,1.4-3.8,1.3-5.2-0.2c-1.4-1.5-1.3-3.8,0.2-5.2l7.5-6.9
		c1.1-1,2.6-1.2,4-0.6c1.3,0.6,2.2,1.9,2.2,3.4V128C380.2,130,378.6,131.7,376.5,131.7z"/>
</g>
</svg>
