<?xml version="1.0" encoding="utf-8"?>
<!-- Generator: Adobe Illustrator 23.0.2, SVG Export Plug-In . SVG Version: 6.00 Build 0)  -->
<svg version="1.1" id="Capa_1" xmlns="http://www.w3.org/2000/svg" xmlns:xlink="http://www.w3.org/1999/xlink" x="0px" y="0px"
	 viewBox="0 0 511 511" style="enable-background:new 0 0 511 511;" xml:space="preserve">
<style type="text/css">
	.st0{fill:#FF620B;}
	.st1{fill:#1AB9FF;}
	.st2{fill:#D33302;}
	.st3{fill:#F74608;}
	.st4{fill:#FFCC80;}
	.st5{fill:#FFB74D;}
</style>
<g>
	<circle class="st2" cx="224.2" cy="64.2" r="59.3"/>
	<g>
		
			<image style="overflow:visible;opacity:0.15;enable-background:new    ;" width="122" height="123" xlink:href="../643D6AB2EF682A0F.png"  transform="matrix(0.9427 0 0 0.9427 166.7406 6.3986)">
		</image>
		<g>
			<circle class="st3" cx="224.2" cy="64.2" r="48.8"/>
		</g>
	</g>
	<path class="st4" d="M406.5,184.2c-16.7,0-30.2,13.5-30.2,30.2v-20.1c0-16.7-13.5-30.2-30.2-30.2S316,177.6,316,194.3v-20.1
		c0-16.7-13.5-30.2-30.2-30.2s-30.2,13.5-30.2,30.2V73.6c0-16.7-13.5-30.2-30.2-30.2S195.3,57,195.3,73.6v251.4l-69.9-34.9
		c-7-3.5-14.7-5.3-22.5-5.3c-15.6,0-28.4,12.7-28.4,28.4v0.1c0,7.5,3,14.8,8.3,20.1l130,130c27.3,27.3,64.4,42.6,102.9,42.6l0,0
		c66.7,0,120.7-54,120.7-120.7v-171C436.6,197.8,423.2,184.2,406.5,184.2z"/>
	<g>
		<path class="st5" d="M265.7,151.9v112.8c0,5.6-4.5,10.1-10.1,10.1V174.2C255.6,165.7,259.3,157.5,265.7,151.9z"/>
		<path class="st5" d="M326.1,172v92.7c0,5.6-4.5,10.1-10.1,10.1v-80.4C316,185.7,319.7,177.6,326.1,172z"/>
		<path class="st5" d="M386.4,192.1v72.6c0,5.6-4.5,10.1-10.1,10.1v-60.3C376.3,205.9,380,197.7,386.4,192.1z"/>
	</g>
</g>
</svg>
