<?xml version="1.0" encoding="utf-8"?>
<!-- Generator: Adobe Illustrator 23.0.2, SVG Export Plug-In . SVG Version: 6.00 Build 0)  -->
<svg version="1.1" id="Capa_1" xmlns="http://www.w3.org/2000/svg" xmlns:xlink="http://www.w3.org/1999/xlink" x="0px" y="0px"
	 viewBox="0 0 511 511" style="enable-background:new 0 0 511 511;" xml:space="preserve">
<style type="text/css">
	.st0{fill:#FF8E1D;}
	.st1{fill:#FFB023;}
	.st2{fill:#FFD12B;}
	.st3{fill:#FF6D15;}
</style>
<g id="surface1">
	<path class="st0" d="M335,308.3c-8.2,0-14.9-6.7-15-14.9c0-8.3,6.7-15,14.9-15c37.6-0.1,73.4-22.8,100.7-63.9
		c26.3-39.5,41.7-91.1,44-146.7h-65.9c-8.3,0-15-6.7-15-15s6.7-15,15-15H495c8.3,0,15,6.7,15,15c0,67.1-17.5,130.4-49.4,178.2
		C427.6,280.8,383,308.2,335,308.3C335,308.3,335,308.3,335,308.3z"/>
	<path class="st1" d="M174,308.3C174,308.3,174,308.3,174,308.3c-48-0.1-92.6-27.6-125.6-77.3C16.5,183.2-1,119.9-1,52.8
		c0-8.3,6.7-15,15-15h81.2c8.3,0,15,6.7,15,15s-6.7,15-15,15H29.3c2.4,55.6,17.8,107.2,44,146.7c27.4,41.1,63.1,63.8,100.7,63.9
		c8.3,0,15,6.7,14.9,15C188.9,301.7,182.2,308.3,174,308.3z"/>
	<path class="st2" d="M414.9,1H94.1c-8.3,0-15,6.7-15,15c0,87.9,17.2,170.9,48.5,233.5c20.1,40.1,44.6,69.2,71.7,85.9v81.5
		c0,8.3,6.7,15,15,15h80.2c8.3,0,15-6.7,15-15v-81.5c27.1-16.7,51.7-45.8,71.7-85.9c31.3-62.6,48.5-145.5,48.5-233.5
		C429.8,7.7,423.1,1,414.9,1z"/>
	<path class="st1" d="M309.6,416.8v-81.5c27.1-16.7,51.7-45.8,71.7-85.9c31.3-62.6,48.5-145.5,48.5-233.5c0-8.3-6.7-15-15-15H254.5
		v430.8h40.1C302.9,431.8,309.6,425.1,309.6,416.8z"/>
	<path class="st0" d="M334.7,401.9H174.3c-30.4,0-55.1,24.7-55.1,55.1V497c0,8.3,6.7,15,15,15h240.5c8.3,0,15-6.7,15-15v-40.1
		C389.7,426.6,365,401.9,334.7,401.9z"/>
	<path class="st3" d="M334.7,401.9h-80.2V512h120.3c8.3,0,15-6.7,15-15v-40.1C389.7,426.6,365,401.9,334.7,401.9z"/>
	<path class="st1" d="M390.8,512H118.2c-8.3,0-15-6.7-15-15c0-8.3,6.7-15,15-15h272.6c8.3,0,15,6.7,15,15
		C405.8,505.3,399.1,512,390.8,512z"/>
	<path class="st0" d="M390.8,482.1H254.5V512h136.3c8.3,0,15-6.7,15-15C405.8,488.8,399.1,482.1,390.8,482.1z"/>
</g>
</svg>
